HIERARCHY
ROOT hip
{
  OFFSET 0 0 0
  CHANNELS 6 Xposition Yposition Zposition Zrotation Yrotation Xrotation
  JOINT abdomen
  {
    OFFSET 0 20.6881 -0.73152
    CHANNELS 3 Zrotation Xrotation Yrotation
    JOINT chest
    {
      OFFSET 0 11.7043 -0.48768
      CHANNELS 3 Zrotation Xrotation Yrotation
      JOINT neck
      {
        OFFSET 0 22.1894 -2.19456
        CHANNELS 3 Zrotation Xrotation Yrotation
        JOINT head
        {
          OFFSET -0.24384 7.07133 1.2192
          CHANNELS 3 Zrotation Xrotation Yrotation
          JOINT leftEye
          {
            OFFSET 4.14528 8.04674 8.04672
            CHANNELS 3 Zrotation Xrotation Yrotation
            End Site
            {
              OFFSET 1 0 0
            }
          }
          JOINT rightEye
          {
            OFFSET -3.6576 8.04674 8.04672
            CHANNELS 3 Zrotation Xrotation Yrotation
            End Site
            {
              OFFSET 1 0 0
            }
          }
        }
      }
      JOINT rCollar
      {
        OFFSET -2.68224 19.2634 -4.8768
        CHANNELS 3 Zrotation Xrotation Yrotation
        JOINT rShldr
        {
          OFFSET -8.77824 -1.95073 1.46304
          CHANNELS 3 Zrotation Xrotation Yrotation
          JOINT rForeArm
          {
            OFFSET -28.1742 -1.7115 0.48768
            CHANNELS 3 Zrotation Xrotation Yrotation
            JOINT rHand
            {
              OFFSET -22.5879 0.773209 7.07136
              CHANNELS 3 Zrotation Xrotation Yrotation
              JOINT rThumb1
              {
                OFFSET -1.2192 -0.487915 3.41376
                CHANNELS 3 Zrotation Xrotation Yrotation
                JOINT rThumb2
                {
                  OFFSET -3.37035 -0.52449 3.41376
                  CHANNELS 3 Zrotation Xrotation Yrotation
                  End Site
                  {
                    OFFSET -1.78271 -1.18214 1.43049
                  }
                }
              }
              JOINT rIndex1
              {
                OFFSET -7.75947 0.938293 5.60832
                CHANNELS 3 Zrotation Xrotation Yrotation
                JOINT rIndex2
                {
                  OFFSET -2.54057 -0.884171 1.56538
                  CHANNELS 3 Zrotation Xrotation Yrotation
                  End Site
                  {
                    OFFSET -1.62519 -0.234802 1.16502
                  }
                }
              }
              JOINT rMid1
              {
                OFFSET -8.24714 1.18213 3.41376
                CHANNELS 3 Zrotation Xrotation Yrotation
                JOINT rMid2
                {
                  OFFSET -3.10165 -0.590103 1.0647
                  CHANNELS 3 Zrotation Xrotation Yrotation
                  End Site
                  {
                    OFFSET -2.48547 -0.328903 0.83742
                  }
                }
              }
              JOINT rRing1
              {
                OFFSET -8.82822 0.546677 1.51678
                CHANNELS 3 Zrotation Xrotation Yrotation
                JOINT rRing2
                {
                  OFFSET -2.60934 -0.819778 -0.0198488
                  CHANNELS 3 Zrotation Xrotation Yrotation
                  End Site
                  {
                    OFFSET -2.33842 -0.294052 0.168128
                  }
                }
              }
              JOINT rPinky1
              {
                OFFSET -8.27202 -0.0477905 -0.4584
                CHANNELS 3 Zrotation Xrotation Yrotation
                JOINT rPinky2
                {
                  OFFSET -1.82734 -0.647385 -0.700984
                  CHANNELS 3 Zrotation Xrotation Yrotation
                  End Site
                  {
                    OFFSET -1.69225 -0.51767 -0.607171
                  }
                }
              }
            }
          }
        }
      }
      JOINT lCollar
      {
        OFFSET 2.68224 19.2634 -4.8768
        CHANNELS 3 Zrotation Xrotation Yrotation
        JOINT lShldr
        {
          OFFSET 8.77824 -1.95073 1.46304
          CHANNELS 3 Zrotation Xrotation Yrotation
          JOINT lForeArm
          {
            OFFSET 28.1742 -1.7115 0.48768
            CHANNELS 3 Zrotation Xrotation Yrotation
            JOINT lHand
            {
              OFFSET 22.5879 0.773209 7.07136
              CHANNELS 3 Zrotation Xrotation Yrotation
              JOINT lThumb1
              {
                OFFSET 1.2192 -0.487915 3.41376
                CHANNELS 3 Zrotation Xrotation Yrotation
                JOINT lThumb2
                {
                  OFFSET 3.37035 -0.52449 3.41376
                  CHANNELS 3 Zrotation Xrotation Yrotation
                  End Site
                  {
                    OFFSET 1.78271 -1.18214 1.43049
                  }
                }
              }
              JOINT lIndex1
              {
                OFFSET 7.75947 0.938293 5.60832
                CHANNELS 3 Zrotation Xrotation Yrotation
                JOINT lIndex2
                {
                  OFFSET 2.54057 -0.884171 1.56538
                  CHANNELS 3 Zrotation Xrotation Yrotation
                  End Site
                  {
                    OFFSET 1.62519 -0.234802 1.16502
                  }
                }
              }
              JOINT lMid1
              {
                OFFSET 8.24714 1.18213 3.41376
                CHANNELS 3 Zrotation Xrotation Yrotation
                JOINT lMid2
                {
                  OFFSET 3.10165 -0.590103 1.0647
                  CHANNELS 3 Zrotation Xrotation Yrotation
                  End Site
                  {
                    OFFSET 2.48547 -0.328903 0.83742
                  }
                }
              }
              JOINT lRing1
              {
                OFFSET 8.82822 0.546677 1.51678
                CHANNELS 3 Zrotation Xrotation Yrotation
                JOINT lRing2
                {
                  OFFSET 2.60934 -0.819778 -0.0198488
                  CHANNELS 3 Zrotation Xrotation Yrotation
                  End Site
                  {
                    OFFSET 2.33842 -0.294052 0.168128
                  }
                }
              }
              JOINT lPinky1
              {
                OFFSET 8.27202 -0.0477905 -0.4584
                CHANNELS 3 Zrotation Xrotation Yrotation
                JOINT lPinky2
                {
                  OFFSET 1.82734 -0.647385 -0.700984
                  CHANNELS 3 Zrotation Xrotation Yrotation
                  End Site
                  {
                    OFFSET 1.69225 -0.51767 -0.607171
                  }
                }
              }
            }
          }
        }
      }
    }
  }
  JOINT rButtock
  {
    OFFSET -8.77824 4.35084 1.2192
    CHANNELS 3 Zrotation Xrotation Yrotation
    JOINT rThigh
    {
      OFFSET 0 -1.70687 -2.19456
      CHANNELS 3 Zrotation Xrotation Yrotation
      JOINT rShin
      {
        OFFSET 0 -36.8199 0.73152
        CHANNELS 3 Zrotation Xrotation Yrotation
        JOINT rFoot
        {
          OFFSET 0.73152 -45.1104 -5.12064
          CHANNELS 3 Zrotation Xrotation Yrotation
          End Site
          {
            OFFSET -1.1221 -3.69964 12.103
          }
        }
      }
    }
  }
  JOINT lButtock
  {
    OFFSET 8.77824 4.35084 1.2192
    CHANNELS 3 Zrotation Xrotation Yrotation
    JOINT lThigh
    {
      OFFSET 0 -1.70687 -2.19456
      CHANNELS 3 Zrotation Xrotation Yrotation
      JOINT lShin
      {
        OFFSET 0 -36.8199 0.73152
        CHANNELS 3 Zrotation Xrotation Yrotation
        JOINT lFoot
        {
          OFFSET -0.73152 -45.1104 -5.12064
          CHANNELS 3 Zrotation Xrotation Yrotation
          End Site
          {
            OFFSET 1.1221 -3.69964 12.103
          }
        }
      }
    }
  }
}
MOTION
Frames:	9
Frame Time:	0.00833333
0.90045 59.1094 -86.2902 -2.2796 1.1107 37.5036 0.0182312 43.479 1.35371 3.01724 -14.7069 0.899079 -1.57987 -4.72066 0.018766 -2.12414 -44.2449 -0.17659 -0.0 0.0 0.0 -0.0 0.0 0.0 -1.85517e-14 9.80531e-14 -1.19341e-14 77.0129 -0.176593 -15.2243 -9.96717 -4.12162 17.7406 -1.9227 36.1272 5.88852 -2.78727e-09 3.57377e-09 2.34403e-09 -4.74728e-09 6.43499e-09 4.12685e-09 -2.78726e-09 3.57376e-09 2.34403e-09 7.73091 5.47488 0.417314 -2.78727e-09 3.57376e-09 2.34403e-09 2.90554 0.965183 0.102902 -2.78726e-09 3.57376e-09 2.34403e-09 10.2786 0.731801 0.0259123 -2.78727e-09 3.57376e-09 2.34404e-09 2.22167 -0.733487 -0.20892 -1.86533e-14 9.80471e-14 -1.20478e-14 -80.6207 12.1968 13.585 4.75883 -1.51702 -8.2805 0.0132095 2.61285 -0.367223 2.70104e-09 9.02516e-09 -4.42591e-09 4.6621e-09 1.5659e-08 -7.66156e-09 2.70103e-09 9.02517e-09 -4.42589e-09 -7.73091 5.47488 -0.417314 2.70104e-09 9.02516e-09 -4.42591e-09 -2.90554 0.965183 -0.102902 2.70103e-09 9.02516e-09 -4.42591e-09 -10.2786 0.731801 -0.0259123 2.70104e-09 9.02516e-09 -4.42592e-09 -2.22167 -0.733487 0.20892 -2.03217e-16 0.0 -3.88251e-19 -147.894 -83.9731 -150.788 -21.7519 87.4136 22.7407 -10.7211 -25.3524 -18.3628 2.03217e-16 0.0 3.88251e-19 133.318 -80.4602 135.55 30.8408 88.157 -32.0673 12.1317 -20.1106 23.241
0.899496 59.4554 -85.5904 -2.2825 1.0843 37.5676 -0.126091 42.4887 1.46707 3.04927 -14.52 0.913211 -1.53758 -4.8507 0.0330873 -2.08972 -43.8402 -0.135297 -0.0 0.0 0.0 -0.0 0.0 0.0 -8.13427e-15 8.42874e-14 -1.12872e-14 76.7782 0.813705 -13.603 -10.2794 -4.30949 18.3339 -1.84784 35.5151 5.75813 -2.74038e-09 3.08667e-09 2.36625e-09 -4.66774e-09 5.56292e-09 4.16302e-09 -2.74038e-09 3.08666e-09 2.36625e-09 7.73091 5.47488 0.417314 -2.74038e-09 3.08666e-09 2.36625e-09 2.90554 0.965183 0.102902 -2.74037e-09 3.08666e-09 2.36625e-09 10.2786 0.731801 0.0259123 -2.74039e-09 3.08666e-09 2.36626e-09 2.22167 -0.733487 -0.20892 -8.24111e-15 8.42809e-14 -1.1427e-14 -80.0185 12.5462 11.8014 4.98973 -1.60538 -8.6957 0.021077 2.55797 -0.359092 2.35061e-09 7.64617e-09 -4.43629e-09 4.05834e-09 1.3262e-08 -7.67836e-09 2.35061e-09 7.64618e-09 -4.43628e-09 -7.73091 5.47488 -0.417314 2.35061e-09 7.64618e-09 -4.43629e-09 -2.90554 0.965183 -0.102902 2.3506e-09 7.64617e-09 -4.43629e-09 -10.2786 0.731801 -0.0259123 2.35061e-09 7.64618e-09 -4.43631e-09 -2.22167 -0.733487 0.20892 -2.03217e-16 0.0 -3.88251e-19 -144.681 -84.8956 -147.443 -17.7551 86.8946 18.7564 -11.0574 -25.5048 -18.8713 2.03217e-16 0.0 3.88251e-19 129.519 -81.215 131.576 23.8532 87.6896 -25.0882 12.4002 -20.1699 23.7201
0.896575 59.8375 -84.8806 -2.308 1.0414 37.646 -0.270111 41.4243 1.58664 3.07852 -14.3277 0.928931 -1.49058 -4.9977 0.046879 -2.04273 -43.3443 -0.0912252 -0.0 0.0 0.0 -0.0 0.0 0.0 6.84644e-16 6.09798e-14 -1.21655e-14 76.4959 1.88817 -11.953 -10.6532 -4.54281 19.0422 -1.75704 34.765 5.59992 -2.42275e-09 2.3536e-09 2.17649e-09 -4.12629e-09 4.24199e-09 3.8255e-09 -2.42274e-09 2.35359e-09 2.17648e-09 7.73091 5.47488 0.417314 -2.42275e-09 2.35358e-09 2.17648e-09 2.90554 0.965183 0.102902 -2.42274e-09 2.35359e-09 2.17648e-09 10.2786 0.731801 0.0259123 -2.42275e-09 2.35359e-09 2.17649e-09 2.22167 -0.733487 -0.20892 5.76474e-16 6.09734e-14 -1.23359e-14 -79.4409 13.1594 10.0228 5.31341 -1.73834 -9.27156 0.0195956 2.11283 -0.296327 1.86373e-09 5.25574e-09 -4.01699e-09 3.21853e-09 9.11364e-09 -6.95159e-09 1.86373e-09 5.25575e-09 -4.01698e-09 -7.73091 5.47488 -0.417314 1.86373e-09 5.25575e-09 -4.01699e-09 -2.90554 0.965183 -0.102902 1.86372e-09 5.25574e-09 -4.01699e-09 -10.2786 0.731801 -0.0259123 1.86374e-09 5.25574e-09 -4.01701e-09 -2.22167 -0.733487 0.20892 -2.03217e-16 0.0 -3.88251e-19 -139.456 -85.8648 -142.084 -14.5136 86.2736 15.5264 -11.3833 -25.6355 -19.3711 2.03217e-16 0.0 3.88251e-19 124.503 -81.9543 126.384 18.6988 87.1228 -19.9406 12.6536 -20.2065 24.1906
0.890661 60.2502 -84.1707 -2.3565 0.9887 37.7499 -0.374 40.3502 1.6668 3.1096 -14.1653 0.939808 -1.44255 -5.177 0.0582376 -1.97393 -42.6953 -0.043311 -0.0 0.0 0.0 -0.0 0.0 0.0 3.72789e-15 3.49884e-14 -1.40143e-14 76.1646 3.03521 -10.3329 -11.0957 -4.83441 19.873 -1.63949 33.7839 5.39531 -1.96121e-09 1.65432e-09 1.78046e-09 -3.3403e-09 2.98497e-09 3.12865e-09 -1.9612e-09 1.65431e-09 1.78046e-09 7.73091 5.47488 0.417314 -1.96121e-09 1.65431e-09 1.78046e-09 2.90554 0.965183 0.102902 -1.96119e-09 1.65431e-09 1.78046e-09 10.2786 0.731801 0.0259123 -1.96121e-09 1.65431e-09 1.78046e-09 2.22167 -0.733487 -0.20892 3.62742e-15 3.49826e-14 -1.42131e-14 -78.9045 14.111 8.32095 5.7555 -1.9358 -10.0488 0.000939296 0.875099 -0.122997 1.48322e-09 3.2094e-09 -3.24105e-09 2.56048e-09 5.56664e-09 -5.60821e-09 1.48321e-09 3.20941e-09 -3.24105e-09 -7.73091 5.47488 -0.417314 1.48321e-09 3.20941e-09 -3.24106e-09 -2.90554 0.965183 -0.102902 1.48321e-09 3.2094e-09 -3.24106e-09 -10.2786 0.731801 -0.0259123 1.48322e-09 3.2094e-09 -3.24107e-09 -2.22167 -0.733487 0.20892 -2.03217e-16 0.0 -3.88251e-19 -129.072 -86.8439 -131.582 -11.9072 85.545 12.9292 -11.6797 -25.751 -19.8301 2.03217e-16 0.0 3.88251e-19 117.671 -82.6575 119.381 14.8442 86.4516 -16.0899 12.8672 -20.2227 24.6092
0.887681 60.7084 -83.4299 -2.3962 0.9648 37.7924 -0.436276 39.2495 1.70571 3.14053 -14.043 0.945739 -1.39565 -5.40363 0.0652274 -1.87322 -41.8801 0.00970455 -0.0 0.0 0.0 -0.0 0.0 0.0 -1.82725e-15 -5.94545e-16 -1.63011e-14 75.781 4.24911 -8.73153 -11.6086 -5.18204 20.8491 -1.48884 32.4567 5.12567 -1.20776e-09 9.22095e-10 9.88198e-10 -2.0582e-09 1.67459e-09 1.7409e-09 -1.20775e-09 9.22092e-10 9.88188e-10 7.73091 5.47488 0.417314 -1.20776e-09 9.22087e-10 9.88193e-10 2.90554 0.965183 0.102902 -1.20775e-09 9.22092e-10 9.88189e-10 10.2786 0.731801 0.0259123 -1.20776e-09 9.22093e-10 9.88194e-10 2.22167 -0.733487 -0.20892 -1.90627e-15 -5.99025e-16 -1.65329e-14 -78.4008 15.6054 6.68393 6.32859 -2.19811 -11.0697 -0.015021 -1.46447 0.205732 1.22061e-09 1.48679e-09 -1.75162e-09 2.10246e-09 2.58972e-09 -3.03162e-09 1.22061e-09 1.48679e-09 -1.75161e-09 -7.73091 5.47488 -0.417314 1.22061e-09 1.48679e-09 -1.75163e-09 -2.90554 0.965183 -0.102902 1.22061e-09 1.48678e-09 -1.75162e-09 -10.2786 0.731801 -0.0259123 1.22062e-09 1.48679e-09 -1.75164e-09 -2.22167 -0.733487 0.20892 -2.03217e-16 0.0 -3.88251e-19 -108.332 -87.6443 -110.741 -9.85356 84.7217 10.8829 -11.9447 -25.8557 -20.2439 2.03217e-16 0.0 3.88251e-19 108.818 -83.2408 110.366 11.9724 85.6868 -13.2193 13.0416 -20.2159 24.9804
0.885495 61.2071 -82.6551 -2.4339 0.9656 37.7614 -0.477535 38.0991 1.72607 3.16997 -13.9416 0.949624 -1.34755 -5.66577 0.0693387 -1.74923 -40.9304 0.0661623 -0.0 0.0 0.0 -0.0 0.0 0.0 -1.31833e-14 -4.65146e-14 -1.94498e-14 75.336 5.53386 -7.12376 -12.1796 -5.57618 21.9609 -1.3245 30.862 4.81436 -1.55366e-10 5.48332e-11 -1.39531e-10 -2.67245e-10 1.22039e-10 -2.33616e-10 -1.5536e-10 5.483e-11 -1.39541e-10 7.73091 5.47488 0.417314 -1.5536e-10 5.48309e-11 -1.39531e-10 2.90554 0.965183 0.102902 -1.55358e-10 5.48316e-11 -1.39539e-10 10.2786 0.731801 0.0259123 -1.55369e-10 5.48323e-11 -1.39532e-10 2.22167 -0.733487 -0.20892 -1.32311e-14 -4.6517e-14 -1.97201e-14 -77.8619 17.5467 5.07081 7.00811 -2.51378 -12.3025 0.00572407 -4.62369 0.652045 9.64156e-10 -5.07775e-10 3.64812e-10 1.65269e-09 -8.52313e-10 6.29074e-10 9.64151e-10 -5.07773e-10 3.64823e-10 -7.73091 5.47488 -0.417314 9.64155e-10 -5.07774e-10 3.64811e-10 -2.90554 0.965183 -0.102902 9.64148e-10 -5.07777e-10 3.64814e-10 -10.2786 0.731801 -0.0259123 9.64162e-10 -5.07774e-10 3.64804e-10 -2.22167 -0.733487 0.20892 -2.03217e-16 0.0 -3.88251e-19 -73.7202 -87.8851 -76.0376 -8.22225 83.8039 9.25723 -12.1862 -25.9462 -20.6277 2.03217e-16 0.0 3.88251e-19 97.8846 -83.6245 99.276 9.80031 84.8333 -11.0461 13.1866 -20.1868 25.3215
0.884732 61.7454 -81.841 -2.4646 0.9901 37.6449 -0.495559 36.9548 1.72173 3.20355 -13.8527 0.949552 -1.29517 -5.93847 0.0738086 -1.62105 -39.852 0.122707 -0.0 0.0 0.0 -0.0 0.0 0.0 -2.60873e-14 -8.66699e-14 -2.4341e-14 74.8268 6.89116 -5.54709 -12.7941 -6.01819 23.1678 -1.1704 29.1981 4.50267 8.57696e-10 -7.20731e-10 -1.22084e-09 1.457e-09 -1.26722e-09 -2.12696e-09 8.57704e-10 -7.20734e-10 -1.22085e-09 7.73091 5.47488 0.417314 8.57706e-10 -7.20728e-10 -1.22084e-09 2.90554 0.965183 0.102902 8.57702e-10 -7.20732e-10 -1.22085e-09 10.2786 0.731801 0.0259123 8.57693e-10 -7.2073e-10 -1.22084e-09 2.22167 -0.733487 -0.20892 -2.61016e-14 -8.66702e-14 -2.46388e-14 -77.2506 19.5553 3.51423 7.76214 -2.8842 -13.6777 0.0720324 -8.11749 1.15005 7.71685e-10 -2.28171e-09 2.37019e-09 1.31389e-09 -3.91275e-09 4.09835e-09 7.71681e-10 -2.28171e-09 2.3702e-09 -7.73091 5.47488 -0.417314 7.71684e-10 -2.28171e-09 2.37019e-09 -2.90554 0.965183 -0.102902 7.71676e-10 -2.28171e-09 2.37019e-09 -10.2786 0.731801 -0.0259123 7.71688e-10 -2.28171e-09 2.37019e-09 -2.22167 -0.733487 0.20892 -2.03217e-16 0.0 -3.88251e-19 -41.3661 -87.2056 -43.6043 -6.88531 82.7669 7.92386 -12.4 -26.017 -20.9789 2.03217e-16 0.0 3.88251e-19 84.6498 -83.7235 85.8845 8.09545 83.8746 -9.33737 13.2912 -20.1428 25.6091
0.88418 62.3299 -80.9754 -2.4938 1.0355 37.427 -0.488752 35.8724 1.68671 3.24689 -13.7677 0.943612 -1.23536 -6.19679 0.0818784 -1.50742 -38.6504 0.176226 -0.0 0.0 0.0 -0.0 0.0 0.0 -3.62863e-14 -1.04959e-13 -3.18552e-14 74.2537 8.3226 -4.0389 -13.4378 -6.50959 24.4295 -1.0407 27.664 4.22498 1.49315e-09 -1.17786e-09 -1.87387e-09 2.53898e-09 -2.08773e-09 -3.27119e-09 1.49315e-09 -1.17786e-09 -1.87387e-09 7.73091 5.47488 0.417314 1.49316e-09 -1.17785e-09 -1.87386e-09 2.90554 0.965183 0.102902 1.49315e-09 -1.17786e-09 -1.87387e-09 10.2786 0.731801 0.0259123 1.49314e-09 -1.17786e-09 -1.87386e-09 2.22167 -0.733487 -0.20892 -3.62725e-14 -1.04958e-13 -3.21534e-14 -76.5789 21.2494 2.05701 8.55936 -3.31073 -15.1262 0.163861 -11.4609 1.63278 7.01042e-10 -3.34245e-09 3.52645e-09 1.18876e-09 -5.74489e-09 6.10068e-09 7.01038e-10 -3.34246e-09 3.52646e-09 -7.73091 5.47488 -0.417314 7.01042e-10 -3.34246e-09 3.52645e-09 -2.90554 0.965183 -0.102902 7.01034e-10 -3.34246e-09 3.52645e-09 -10.2786 0.731801 -0.0259123 7.01044e-10 -3.34245e-09 3.52645e-09 -2.22167 -0.733487 0.20892 -2.03217e-16 0.0 -3.88251e-19 -23.7922 -85.7846 -25.9685 -5.76843 81.5855 6.80808 -12.5818 -26.0628 -21.2946 2.03217e-16 0.0 3.88251e-19 69.8215 -83.3989 70.8932 6.7225 82.7931 -7.95719 13.3446 -20.0913 25.82
0.883108 62.9646 -80.0469 -2.5239 1.1017 37.0872 -0.446702 34.8553 1.60751 3.29764 -13.6923 0.928948 -1.16446 -6.45656 0.0930849 -1.39674 -37.2914 0.226678 -0.0 0.0 0.0 -0.0 0.0 0.0 -4.55166e-14 -8.96028e-14 -4.68029e-14 73.6023 9.91393 -2.60079 -14.1245 -7.06362 25.7865 -0.924256 26.22 3.96902 1.56585e-09 -1.16598e-09 -1.93677e-09 2.66285e-09 -2.07099e-09 -3.38252e-09 1.56586e-09 -1.16598e-09 -1.93678e-09 7.73091 5.47488 0.417314 1.56587e-09 -1.16598e-09 -1.93677e-09 2.90554 0.965183 0.102902 1.56586e-09 -1.16598e-09 -1.93678e-09 10.2786 0.731801 0.0259123 1.56585e-09 -1.16598e-09 -1.93677e-09 2.22167 -0.733487 -0.20892 -4.54786e-14 -8.96012e-14 -4.70564e-14 -75.8899 22.5076 0.74317 9.42908 -3.81504 -16.7126 0.265921 -14.7703 2.11846 8.66149e-10 -3.36395e-09 3.45508e-09 1.47533e-09 -5.78774e-09 5.98335e-09 8.66144e-10 -3.36395e-09 3.45509e-09 -7.73091 5.47488 -0.417314 8.6615e-10 -3.36395e-09 3.45508e-09 -2.90554 0.965183 -0.102902 8.66141e-10 -3.36395e-09 3.45508e-09 -10.2786 0.731801 -0.0259123 8.66149e-10 -3.36395e-09 3.45508e-09 -2.22167 -0.733487 0.20892 -2.03217e-16 0.0 -3.88251e-19 -15.1936 -83.8962 -17.3346 -4.83837 80.2504 5.87712 -12.7449 -26.1007 -21.5902 2.03217e-16 0.0 3.88251e-19 55.5625 -82.5391 56.4528 5.60658 81.5753 -6.8313 13.3618 -20.0548 25.9681
